<svg width="18" height="18" viewBox="0 0 18 18" fill="none" xmlns="http://www.w3.org/2000/svg">
<path d="M13.5 7.5H12.555C12.2744 6.41325 11.6946 5.42699 10.8815 4.6533C10.0684 3.8796 9.05456 3.34949 7.95521 3.12321C6.85587 2.89692 5.71509 2.98353 4.66251 3.37319C3.60993 3.76286 2.68775 4.43995 2.00076 5.32754C1.31377 6.21512 0.889514 7.27761 0.776202 8.39427C0.66289 9.51092 0.865065 10.637 1.35975 11.6445C1.85444 12.652 2.62181 13.5005 3.57466 14.0937C4.52751 14.6868 5.62763 15.0008 6.75002 15H13.5C14.4946 15 15.4484 14.6049 16.1517 13.9017C16.8549 13.1984 17.25 12.2446 17.25 11.25C17.25 10.2554 16.8549 9.30161 16.1517 8.59835C15.4484 7.89509 14.4946 7.5 13.5 7.5Z" stroke="#BABEC3" stroke-linecap="round" stroke-linejoin="round"/>
</svg>
